<?xml version="1.0" encoding="UTF-8"?>
<svg width="96px" height="32px" viewBox="0 0 96 32" version="1.1" xmlns="http://www.w3.org/2000/svg" xmlns:xlink="http://www.w3.org/1999/xlink">
    <!-- Generator: Sketch 61 (89581) - https://sketch.com -->
    <title>icon_pay</title>
    <desc>Created with Sketch.</desc>
    <g id="账户明细" stroke="none" stroke-width="1" fill="none" fill-rule="evenodd">
        <g id="线上充值" transform="translate(-336.000000, -331.000000)" fill-rule="nonzero">
            <g id="Group-8" transform="translate(304.208314, 331.300000)">
                <g id="微信支付" transform="translate(32.118294, 0.250000)">
                    <g id="Group-10" transform="translate(0.653217, 0.491935)">
                        <path d="M39.2935782,9.63245548 C40.2928222,8.46667087 41.1588336,7.0843834 41.8583044,5.48559308 L42.7409699,5.90194472 C42.4078885,6.60141549 42.0748072,7.25092406 41.7084178,7.85047043 L41.7084178,14.8451781 L40.8090982,14.8451781 L40.8090982,9.24941196 C40.4427088,9.78234207 40.0430112,10.26531 39.6433136,10.6983157 C39.5433892,10.3485803 39.4268107,9.98219086 39.2935782,9.63245548 L39.2935782,9.63245548 Z M39.3601945,5.33570649 C40.4760169,4.20323001 41.3253743,3.0374454 41.8749584,1.85500672 L42.7076617,2.32132056 C41.9249206,3.82018649 40.9090226,5.16916583 39.6766217,6.36825857 C39.5933514,6.03517725 39.4767729,5.68544187 39.3601945,5.33570649 L39.3601945,5.33570649 Z M46.071783,10.531775 L44.306452,10.531775 L44.306452,11.1479755 C44.306452,12.7467658 43.8567923,13.8792423 42.9574727,14.562059 C42.8075861,14.312248 42.6077373,14.0291289 42.3579263,13.7127016 C43.0573971,13.2463878 43.4071325,12.3637223 43.4071325,11.0480511 L43.4071325,9.63245548 L46.9544485,9.63245548 L46.9544485,11.9473706 C47.3708002,11.5976352 47.837114,11.1812836 48.35339,10.6983157 C48.4366604,11.0813592 48.5032766,11.4310946 48.586547,11.7308678 C48.1035791,12.1139113 47.5373408,12.5968792 46.9211404,13.1631174 C46.7212916,13.3463122 46.5547509,13.5295069 46.3882103,13.6960475 L45.7053936,12.8466902 C45.9385505,12.6135333 46.071783,12.2804519 46.071783,11.8807544 L46.071783,10.531775 L46.071783,10.531775 Z M42.9907808,6.26833417 L42.9907808,3.00413726 L43.8401382,3.00413726 L43.8401382,5.36901462 L44.9393065,5.36901462 L44.9393065,1.97158518 L45.821972,1.97158518 L45.821972,5.35236055 L46.9211404,5.35236055 L46.9211404,2.9874832 L47.7704977,2.9874832 L47.7704977,6.70133989 L46.9211404,6.70133989 L46.9211404,6.26833417 L42.9907808,6.26833417 Z M43.2572459,7.45077285 L47.5040327,7.45077285 L47.5040327,8.38340054 L43.2572459,8.38340054 L43.2572459,7.45077285 Z M49.3193259,1.78839046 L50.2186454,1.95493112 C50.0687588,2.77098034 49.9022182,3.55372144 49.7190234,4.3031544 L52.6001768,4.3031544 L52.6001768,5.26909022 L51.9673223,5.26909022 C51.7841276,7.8171623 51.3511219,9.83230427 50.6849593,11.3145161 C51.2012353,12.3137601 51.8673979,13.1464634 52.7001012,13.8625882 C52.5002524,14.2123236 52.3170577,14.5454049 52.133863,14.8951403 C51.3511219,14.1290533 50.7016133,13.2796959 50.1853373,12.3137601 C49.6524072,13.2463878 48.9695905,14.1290533 48.1202331,14.9950647 C47.9370384,14.7452537 47.7205355,14.4621346 47.4707246,14.1623614 C48.4366604,13.2463878 49.1860933,12.297106 49.7190234,11.2978621 C49.2194015,10.0654612 48.9196283,8.68317372 48.8197039,7.15099966 C48.6698173,7.50073505 48.5199307,7.8171623 48.3700441,8.15024362 C48.1868494,7.91708669 47.9870006,7.68392977 47.7371896,7.45077285 C48.4699685,5.88529066 49.0195527,4.02003528 49.3193259,1.78839046 L49.3193259,1.78839046 Z M51.0513487,5.25243616 L49.4525584,5.25243616 L49.4192503,5.38566868 C49.4359043,7.20096186 49.6857153,8.79975218 50.1853373,10.1653856 C50.5683808,9.06621724 50.8514999,7.43411878 51.0513487,5.25243616 L51.0513487,5.25243616 Z M52.9499122,8.18355175 C54.2489294,6.25168011 55.2315192,4.10330561 55.8976819,1.75508233 L56.930234,2.05485551 C56.5471904,3.25394825 56.1141847,4.3531166 55.664525,5.36901462 L55.664525,14.9284484 L54.6985891,14.9284484 L54.6985891,7.31754032 C54.2822375,8.03366515 53.8658858,8.68317372 53.399572,9.28272009 L52.9499122,8.18355175 L52.9499122,8.18355175 Z M56.8136555,3.5703755 L61.1603667,3.5703755 C60.8939016,3.12071573 60.6107825,2.65440188 60.3276634,2.2047421 L61.226983,1.73842826 C61.5434102,2.22139617 61.8598375,2.72101815 62.1762647,3.25394825 L61.5933724,3.55372144 L66.2065486,3.55372144 L66.2065486,4.48634913 L56.8136555,4.48634913 L56.8136555,3.5703755 Z M57.5464344,5.73540407 L65.4071535,5.73540407 L65.4071535,6.63472362 L57.5464344,6.63472362 L57.5464344,5.73540407 Z M57.5464344,7.88377856 L65.4071535,7.88377856 L65.4071535,8.78309812 L57.5464344,8.78309812 L57.5464344,7.88377856 Z M57.696321,10.0488071 L65.290575,10.0488071 L65.290575,14.9284484 L64.2580229,14.9284484 L64.2580229,14.1290533 L58.7288731,14.1290533 L58.7288731,14.9284484 L57.696321,14.9284484 L57.696321,10.0488071 L57.696321,10.0488071 Z M64.2580229,10.9481267 L58.7288731,10.9481267 L58.7288731,13.2130796 L64.2580229,13.2130796 L64.2580229,10.9481267 Z M66.789441,3.63699177 L72.8515209,3.63699177 L72.8515209,1.72177419 L73.9506893,1.72177419 L73.9506893,3.63699177 L79.7296501,3.63699177 L79.7296501,4.60292759 L73.9506893,4.60292759 L73.9506893,6.58476142 L77.7145082,6.58476142 L77.7145082,7.51738911 C76.915113,9.28272009 75.7826365,10.764932 74.3170787,11.9473706 C75.7659825,12.7301117 77.6312378,13.29635 79.9128449,13.6294313 C79.5964176,14.0790911 79.3466066,14.4621346 79.1467578,14.7952159 C76.6153398,14.2955939 74.6668141,13.5794691 73.3011807,12.6634955 C71.852277,13.562815 69.8704431,14.3455561 67.3390251,14.9950647 C67.1558304,14.578713 66.9726357,14.2289777 66.7561328,13.9458585 C69.1709724,13.3962744 71.0695359,12.7467658 72.4185152,11.9973328 C71.1361521,10.8981645 70.1369082,9.41595262 69.4207834,7.58400538 L68.1051122,7.58400538 L68.1051122,6.61806956 L72.8515209,6.61806956 L72.8515209,4.61958165 L66.789441,4.61958165 L66.789441,3.63699177 L66.789441,3.63699177 Z M76.398837,7.56735131 L70.5366058,7.56735131 C71.1861143,9.16614163 72.118742,10.4318506 73.3511429,11.3478243 C74.7334304,10.2986181 75.7493284,9.04956317 76.398837,7.56735131 L76.398837,7.56735131 Z M80.2958884,8.11693548 C81.5282892,6.38491263 82.5441873,4.26984627 83.3435824,1.75508233 L84.4427508,2.17143397 C84.0763613,3.17067792 83.6933178,4.08665155 83.3102743,4.9360089 L83.3102743,14.8451781 L82.2444141,14.8451781 L82.2444141,7.05107527 C81.7447921,7.93374076 81.2451701,8.69982779 80.7288941,9.38264449 C80.5456994,8.78309812 80.4124668,8.36674647 80.2958884,8.11693548 Z M84.1762857,4.78612231 L90.2883279,4.78612231 L90.2883279,1.87166079 L91.3708422,1.87166079 L91.3708422,4.78612231 L93.3027138,4.78612231 L93.3027138,5.80202033 L91.3708422,5.80202033 L91.3708422,12.546917 C91.3708422,13.9292045 90.7379877,14.6286752 89.4889327,14.6619834 C89.0725811,14.6786374 88.4064184,14.6619834 87.4904448,14.6453293 C87.4404826,14.2955939 87.3738664,13.8958963 87.273942,13.4462366 C88.1232993,13.5128528 88.789462,13.546161 89.2557758,13.546161 C89.6721274,13.562815 89.9385925,13.4628906 90.0884791,13.2796959 C90.2383657,13.1131552 90.3049819,12.7634199 90.3049819,12.2304898 L90.3049819,5.80202033 L84.1762857,5.80202033 L84.1762857,4.78612231 L84.1762857,4.78612231 Z M85.0422971,7.91708669 L85.9416167,7.35084845 C86.4912009,8.13358955 87.1240554,9.16614163 87.8568343,10.4318506 L86.8908984,11.031397 C86.2580439,9.8156502 85.6418435,8.76644405 85.0422971,7.91708669 L85.0422971,7.91708669 Z M50.0020775,18.5423807 L48.1701303,25.0874286 L47.1875404,25.0874286 L45.8718692,20.374328 C45.8052529,20.1578251 45.7719448,19.9413222 45.7719448,19.6915113 L45.7552907,19.6915113 C45.7386367,19.9246682 45.7053285,20.141171 45.6387123,20.3576739 L44.306387,25.0874286 L43.3237971,25.0874286 L41.4252336,18.5423807 L42.3578613,18.5423807 L43.6901865,23.4886383 C43.7568028,23.7051411 43.7901109,23.9382981 43.7901109,24.1548009 L43.8234191,24.1548009 C43.8400731,23.9882602 43.8900353,23.7551033 43.9566516,23.4886383 L45.3722472,18.5423807 L46.2049505,18.5423807 L47.5539298,23.5219464 C47.603892,23.6884871 47.6372002,23.8883359 47.6705083,24.1548009 L47.6871624,24.1548009 C47.7038164,23.9716062 47.7371246,23.7551033 47.8037408,23.5052923 L49.0861039,18.5423807 L50.0020775,18.5423807 L50.0020775,18.5423807 Z M54.432059,22.9723622 L51.1512081,22.9723622 C51.1678621,23.4719842 51.3010946,23.8550277 51.5675597,24.1214928 C51.8340248,24.3879578 52.1837601,24.5378444 52.650074,24.5378444 C53.16635,24.5378444 53.6493179,24.3713038 54.0989777,24.0382224 L54.0989777,24.7710013 C53.6826261,25.0541205 53.149696,25.2040071 52.4668793,25.2040071 C51.7840626,25.2040071 51.2677865,24.9875042 50.884743,24.5544985 C50.5016995,24.1214928 50.3185048,23.5386005 50.3185048,22.7725134 C50.3185048,22.0563886 50.5183536,21.4734963 50.9347052,21.0071825 C51.3510568,20.5408686 51.8673329,20.3077117 52.4835333,20.3077117 C53.0997338,20.3077117 53.5660476,20.5075605 53.915783,20.890604 C54.2655184,21.2736475 54.432059,21.8398858 54.432059,22.5393565 L54.432059,22.9723622 L54.432059,22.9723622 Z M53.5993557,22.3061996 C53.5993557,21.889848 53.4994313,21.5567666 53.2995826,21.3236097 C53.0997338,21.0904528 52.8166146,20.9738743 52.4668793,20.9738743 C52.1337979,20.9738743 51.8506788,21.0904528 51.6175219,21.3402638 C51.384365,21.5900748 51.2178243,21.906502 51.1678621,22.3061996 L53.5993557,22.3061996 L53.5993557,22.3061996 Z M60.1277496,24.8209635 C59.6447816,25.0707745 59.0452353,25.2040071 58.3124564,25.2040071 C57.3798287,25.2040071 56.6303957,24.9042339 56.0641575,24.3046875 C55.4979192,23.7051411 55.2148001,22.9224 55.2148001,21.9398101 C55.2148001,20.890604 55.5312274,20.0412466 56.1640819,19.3917381 C56.7969364,18.7422295 57.5963315,18.4258023 58.5622674,18.4258023 C59.1951219,18.4258023 59.7113979,18.5090726 60.1110955,18.6922673 L60.1110955,19.5749328 C59.6447816,19.3084677 59.1285056,19.1918893 58.5622674,19.1918893 C57.8294885,19.1918893 57.2299421,19.4417003 56.7802823,19.9246682 C56.3306225,20.4076361 56.0974656,21.0737987 56.0974656,21.889848 C56.0974656,22.672589 56.3139685,23.2887895 56.7469742,23.7551033 C57.1799799,24.2214172 57.7295641,24.4545741 58.4290348,24.4545741 C59.0785434,24.4545741 59.6447816,24.3046875 60.1277496,24.0215684 L60.1277496,24.8209635 L60.1277496,24.8209635 Z M65.2738559,25.1040827 L64.4411526,25.1040827 L64.4411526,22.4227781 C64.4411526,21.4734963 64.0914172,21.0071825 63.3919465,21.0071825 C63.0422111,21.0071825 62.7424379,21.140415 62.4926269,21.4235341 C62.2428159,21.7066532 62.1428915,22.0397345 62.1428915,22.4560862 L62.1428915,25.1040827 L61.3101882,25.1040827 L61.3101882,18.1759913 L62.1428915,18.1759913 L62.1428915,21.1903772 L62.1595456,21.1903772 C62.509281,20.6074849 63.025557,20.3077117 63.6917196,20.3077117 C64.7409258,20.3077117 65.2738559,20.9405662 65.2738559,22.2229293 L65.2738559,25.1040827 L65.2738559,25.1040827 Z M66.7727218,20.7407174 C67.2390357,20.4575983 67.7719658,20.3077117 68.3881662,20.3077117 C69.5206427,20.3077117 70.0868809,20.9072581 70.0868809,22.0896967 L70.0868809,25.1040827 L69.2708317,25.1040827 L69.2708317,24.3879578 L69.2541776,24.3879578 C68.9377504,24.937542 68.4547825,25.2206611 67.821928,25.2206611 C67.3722682,25.2206611 67.0058788,25.1040827 66.7394137,24.8542717 C66.4729486,24.6044607 66.3397161,24.2713794 66.3397161,23.8550277 C66.3397161,22.9890163 66.8559922,22.4727403 67.8885442,22.3228537 L69.2708317,22.1230049 C69.2708317,21.3569178 68.9544045,20.9738743 68.32155,20.9738743 C67.7553117,20.9738743 67.2556897,21.1570691 66.7893759,21.5401126 L66.7893759,20.7407174 L66.7727218,20.7407174 Z M68.1550093,22.8890919 C67.7719658,22.9390541 67.5055007,23.0389785 67.3556141,23.172211 C67.2057275,23.3054435 67.1391113,23.5052923 67.1391113,23.7717574 C67.1391113,23.9882602 67.2223816,24.171455 67.3722682,24.3213416 C67.5221548,24.4712282 67.7386577,24.5378444 68.0051227,24.5378444 C68.3715122,24.5378444 68.6712853,24.4046119 68.9044423,24.1548009 C69.1375992,23.9049899 69.2541776,23.5885627 69.2541776,23.2055192 L69.2541776,22.7558594 L68.1550093,22.8890919 Z M73.6841592,25.0541205 C73.5009644,25.1540449 73.2678075,25.2040071 72.9513803,25.2040071 C72.118677,25.2040071 71.7023253,24.7376932 71.7023253,23.8050655 L71.7023253,21.1071069 L70.9029302,21.1071069 L70.9029302,20.4242902 L71.7023253,20.4242902 L71.7023253,19.2918137 L72.5350286,19.0253486 L72.5350286,20.4076361 L73.7008132,20.4076361 L73.7008132,21.0904528 L72.5350286,21.0904528 L72.5350286,23.6385249 C72.5350286,23.9382981 72.5849908,24.171455 72.6849152,24.3046875 C72.7848396,24.43792 72.9680343,24.5045363 73.2011913,24.5045363 C73.384386,24.5045363 73.5509266,24.4545741 73.6841592,24.3546497 L73.6841592,25.0541205 Z M78.1807569,22.655935 L78.1807569,25.1040827 L77.3480537,25.1040827 L77.3480537,18.5590348 L79.213309,18.5590348 C79.9127798,18.5590348 80.462364,18.7255754 80.8620615,19.0753108 C81.2617591,19.4250462 81.4449539,19.9080141 81.4449539,20.5408686 C81.4449539,21.1903772 81.2117969,21.7066532 80.7621372,22.1063508 C80.3124774,22.5060484 79.7295851,22.6892431 79.0467684,22.672589 L78.1807569,22.672589 L78.1807569,22.655935 Z M78.1807569,19.2918137 L78.1807569,21.906502 L78.963498,21.906502 C79.4797741,21.906502 79.8794717,21.7899236 80.1459367,21.5567666 C80.4124018,21.3236097 80.5456343,20.9905284 80.5456343,20.5575227 C80.5456343,19.7081653 80.0460123,19.2918137 79.0467684,19.2918137 L78.1807569,19.2918137 Z M82.3442734,20.7407174 C82.8105873,20.4575983 83.3435174,20.3077117 83.9597178,20.3077117 C85.0921943,20.3077117 85.6584325,20.9072581 85.6584325,22.0896967 L85.6584325,25.1040827 L84.8423833,25.1040827 L84.8423833,24.3879578 L84.8257292,24.3879578 C84.509302,24.937542 84.0263341,25.2206611 83.3934796,25.2206611 C82.9438198,25.2206611 82.5774303,25.1040827 82.3109653,24.8542717 C82.0445002,24.6044607 81.9112677,24.2713794 81.9112677,23.8550277 C81.9112677,22.9890163 82.4275437,22.4727403 83.4600958,22.3228537 L84.8423833,22.1230049 C84.8423833,21.3569178 84.525956,20.9738743 83.8931015,20.9738743 C83.3268633,20.9738743 82.8272413,21.1570691 82.3609275,21.5401126 L82.3609275,20.7407174 L82.3442734,20.7407174 Z M83.7265609,22.8890919 C83.3435174,22.9390541 83.0770523,23.0389785 82.9271657,23.172211 C82.7772791,23.3054435 82.7106629,23.5052923 82.7106629,23.7717574 C82.7106629,23.9882602 82.7939332,24.171455 82.9438198,24.3213416 C83.0937064,24.4712282 83.3102092,24.5378444 83.5766743,24.5378444 C83.9430637,24.5378444 84.2428369,24.4046119 84.4759938,24.1548009 C84.7091508,23.9049899 84.8257292,23.5885627 84.8257292,23.2055192 L84.8257292,22.7558594 L83.7265609,22.8890919 L83.7265609,22.8890919 Z M90.8211929,20.4242902 L88.7061266,25.8035534 C88.306429,26.8027974 87.7568448,27.3024194 87.04072,27.3024194 C86.8408712,27.3024194 86.6576765,27.2857653 86.5077899,27.2358031 L86.5077899,26.5030242 C86.6743305,26.5696405 86.8242171,26.6029486 86.9741037,26.6029486 C87.3571472,26.6029486 87.6236123,26.3864457 87.8234611,25.936786 L88.1898505,25.0874286 L86.3579033,20.4242902 L87.2738769,20.4242902 L88.4896237,23.9382981 L88.5895481,24.3213416 L88.6062022,24.3213416 C88.6228562,24.2380712 88.6561644,24.1048387 88.7061266,23.9382981 L89.9884896,20.4076361 L90.8211929,20.4076361 L90.8211929,20.4242902 Z" id="Shape" stroke="#00A400" stroke-width="0.3" fill="#04A007"></path>
                        <path d="M11.9850328,18.3891232 C11.8368662,18.471438 11.6722367,18.5043639 11.4911441,18.5043639 C11.0795702,18.5043639 10.7173851,18.2738825 10.5362926,17.9446234 L10.4704408,17.7799938 L7.47418257,11.2112739 C7.44125666,11.145422 7.4247937,11.0631072 7.4247937,10.9807925 C7.4247937,10.6844592 7.67173806,10.4375149 7.96807129,10.4375149 C8.08331199,10.4375149 8.19855269,10.4704408 8.29733043,10.5527556 L11.8204033,13.0551251 C12.0838106,13.2197546 12.3801438,13.3185324 12.7258659,13.3185324 C12.9234214,13.3185324 13.1209769,13.2856065 13.2856065,13.2197546 L29.9131932,5.81142389 C26.933398,2.30481401 22.0274367,0 16.4629572,0 C7.37540483,0 -3.49541185e-15,6.14068304 -3.49541185e-15,13.7136433 C-3.49541185e-15,17.8458456 2.22249922,21.5664739 5.69618319,24.0853064 C5.97605346,24.2828619 6.15714599,24.612121 6.15714599,24.9743061 C6.15714599,25.0895468 6.12422008,25.2047875 6.09129417,25.3200282 C5.81142389,26.3571945 5.36692405,28.0034902 5.35046109,28.085805 C5.31753518,28.2175086 5.2681463,28.3492123 5.2681463,28.480916 C5.2681463,28.7772492 5.51509066,29.0241935 5.81142389,29.0241935 C5.92666459,29.0241935 6.02544234,28.9748047 6.12422008,28.9254158 L9.74607066,26.8840091 C10.009478,26.7193795 10.3058112,26.6370648 10.6186074,26.6370648 C10.783237,26.6370648 10.9478665,26.6699907 11.0960332,26.7029166 C12.7752548,27.1803423 14.5861801,27.4602126 16.4629572,27.4602126 C25.5505096,27.4602126 32.9259144,21.3195296 32.9259144,13.7465693 C32.9259144,11.4582182 32.2509332,9.28510786 31.0491373,7.39186778 L12.1002735,18.3232714 L11.9850328,18.3891232 Z" id="Path" fill="#26BE29"></path>
                    </g>
                </g>
            </g>
        </g>
    </g>
</svg>