<?xml version="1.0" encoding="UTF-8"?>
<svg width="96px" height="32px" viewBox="0 0 96 32" version="1.1" xmlns="http://www.w3.org/2000/svg" xmlns:xlink="http://www.w3.org/1999/xlink">
    <!-- Generator: Sketch 61 (89581) - https://sketch.com -->
    <title>icon_pay</title>
    <desc>Created with Sketch.</desc>
    <g id="账户明细" stroke="none" stroke-width="1" fill="none" fill-rule="evenodd">
        <g id="线上充值" transform="translate(-526.000000, -332.000000)" fill-rule="nonzero">
            <g id="Group-23" transform="translate(494.000000, 331.800000)">
                <g id="支付宝" transform="translate(32.737742, 1.750000)">
                    <g id="Group" transform="translate(0.777912, 0.777912)">
                        <path d="M27.1663915,18.5897625 L27.1663915,5.23218785 C27.1663915,2.35715968 24.8243742,0.0151423534 21.949346,0.0151423534 L5.24833969,0.0151423534 C2.35715968,0.0151423534 0.0151423534,2.35715968 0.0151423534,5.23218785 L0.0151423534,21.9331942 C0.0151423534,24.8082223 2.35715968,27.1502397 5.23218785,27.1502397 L21.9331942,27.1502397 C24.5013373,27.1502397 26.6333807,25.2927776 27.0694804,22.8538493 C25.6804219,22.256231 19.6880879,19.6719361 16.5707821,18.1698146 C14.1964611,21.0448428 11.7090771,22.77309 7.94569758,22.77309 C4.18231801,22.77309 1.69493409,20.4633764 1.98566728,17.6368038 C2.1794894,15.7793417 3.45548505,12.7427951 8.99556741,13.2596541 C11.9028993,13.5342355 13.2435023,14.0833982 15.6178233,14.8586867 C16.2315934,13.7280576 16.7484524,12.4843656 17.1360966,11.1760663 L6.58894271,11.1760663 L6.58894271,10.1261965 L11.8059882,10.1261965 L11.8059882,8.26873445 L5.45831366,8.26873445 L5.45831366,7.12195355 L11.8059882,7.12195355 L11.8059882,4.40844382 C11.8059882,4.40844382 11.8705956,3.98849589 12.338999,3.98849589 L14.9394459,3.98849589 L14.9394459,7.12195355 L21.7232202,7.12195355 L21.7232202,8.26873445 L14.9394459,8.26873445 L14.9394459,10.1423483 L20.4795282,10.1423483 C19.9626692,12.2097843 19.2035326,14.1157018 18.234422,15.7793417 C19.8496063,16.3608081 27.1663915,18.5897625 27.1663915,18.5897625 Z M7.54190149,20.9963872 C3.5846998,20.9963872 2.9547779,18.4928515 3.16475186,17.4429816 C3.37472583,16.4092636 4.52150673,15.0363569 6.73430931,15.0363569 C9.27014876,15.0363569 11.5314069,15.6824307 14.2610684,17.0068819 C12.3228472,19.5104176 9.98082988,20.9963872 7.54190149,20.9963872 Z" id="Shape" fill="#00ADF4"></path>
                        <path d="M77.3663846,16.4254155 C77.430992,16.4900229 77.4794475,16.5546302 77.5440549,16.6192376 L77.5440549,16.7969079 C73.1507534,16.7969079 68.757452,16.7969079 64.3803023,16.780756 C64.2349357,16.780756 64.0572655,16.893819 63.9442026,16.6999968 C64.0572655,16.4254155 63.8795952,16.1346823 64.0572655,15.8762528 C64.1218728,15.8762528 64.1541765,15.9085565 64.1864802,15.957012 C64.2510876,16.3931118 64.5256689,16.473871 64.9133132,16.473871 C68.9674259,16.4577192 73.0215387,16.473871 77.0918033,16.4577192 C77.1725625,16.473871 77.2694736,16.4577192 77.3663846,16.4254155 L77.3663846,16.4254155 Z M45.2727975,8.64022685 C44.6751793,10.1100446 43.770676,11.3375847 42.5915915,12.3874546 C42.3654656,12.4359101 42.2524027,12.5812767 42.1716435,12.7750988 C41.9293659,13.0819839 41.5740253,13.2596541 41.2509884,13.5503873 C42.333162,14.2772203 43.5122465,14.7779274 44.6590274,15.3593938 C44.7559385,15.5693678 44.9659125,15.5855196 45.1274309,15.650127 C45.4989233,15.7793417 45.8542639,16.0054676 46.2419081,16.0862268 C46.6295524,16.166986 46.6457042,16.4092636 46.6295524,16.7161487 C46.6134005,17.0553374 46.4034266,17.1684003 46.0965415,17.1522485 C45.3374049,17.0876411 44.6428756,16.7969079 43.9321945,16.5546302 C43.2376652,16.3123526 42.5269841,16.0862268 41.8809103,15.7308862 C41.5901771,15.5047604 41.2671403,15.3270901 40.8956479,15.2786346 C40.8633442,15.2786346 40.8310405,15.2786346 40.8148887,15.2624827 C40.0072965,14.6002572 39.2643117,14.7617756 38.3921121,15.2624827 C36.6961685,16.2154415 34.8387065,16.8292116 32.932789,17.2491595 C32.6259039,17.2653114 32.4805373,17.1360966 32.5289929,16.8130597 C32.5612966,16.6192376 32.4805373,16.4092636 32.5936002,16.2154415 C33.3688887,15.8439491 34.2249365,15.6662788 35.0163768,15.3109383 C35.6786024,15.0040532 36.3246761,14.6810164 36.9869017,14.3579795 C37.0999646,14.309524 37.2453312,14.2449166 37.2937867,14.1157018 C37.5360644,13.9541834 37.7783421,13.792665 38.0367716,13.6311465 C37.6975828,13.3404134 37.374546,13.065832 37.0515091,12.7912507 C37.0030536,12.6297322 36.8899907,12.5328212 36.7123204,12.5166693 C35.823969,11.725229 35.0163768,10.8530294 34.4026067,9.81931144 C34.3864549,9.60933747 34.4672141,9.49627457 34.7094918,9.51242641 C35.2425026,9.52857825 35.7755134,9.5447301 36.3085243,9.51242641 C36.6315612,9.49627457 36.6961685,9.78700775 36.9061425,9.90007066 C37.4391533,10.4653852 37.988316,11.0468516 38.5213269,11.6121661 C38.5859342,11.7736845 38.6666935,11.9028993 38.8605156,11.9028993 C38.8928193,11.9190511 38.925123,11.9190511 38.9412748,11.935203 C39.6681078,12.4843656 39.6681078,12.4843656 40.3303333,11.8382919 C41.2025329,10.9822442 41.9616696,10.0454373 42.4623767,8.9148082 C42.5269841,8.75328976 42.640047,8.60792317 42.6238951,8.38179736 L33.9503551,8.38179736 C33.8049885,8.38179736 33.6273182,8.47870842 33.4981035,8.30103814 C33.546559,8.26873445 33.5950146,8.25258261 33.6596219,8.25258261 L42.333162,8.25258261 C42.4946804,8.22027892 42.3977693,8.15567155 42.4462249,8.18797523 C39.5065893,8.30103814 36.5508019,8.22027892 33.6111664,8.23643076 C33.4981035,7.99415311 33.546559,7.73572361 33.5788627,7.47729411 C35.0002249,7.39653489 36.4054353,7.46114227 37.8267976,7.44499043 L33.6596219,7.44499043 C33.5950146,7.42883858 33.5627109,7.39653489 33.5788627,7.33192752 C34.9356176,7.33192752 36.2923724,7.31577568 37.6491273,7.31577568 C37.9560123,7.31577568 38.1013789,7.26732015 38.0690752,6.91197959 C38.0367716,6.47587981 38.0529234,6.03978003 38.0529234,5.61983209 C37.9237086,5.50676919 37.7621902,5.57137656 37.6168236,5.57137656 L33.239674,5.57137656 C33.0781556,5.57137656 32.9166371,5.60368025 32.7551187,5.53907288 C32.6420558,5.39370628 32.6905113,5.23218785 32.6743595,5.07066941 C32.6582076,4.79608807 32.7551187,4.66687332 33.0620037,4.66687332 C34.6448844,4.68302516 36.2277651,4.66687332 37.8267976,4.66687332 L32.7066632,4.66687332 C32.6743595,4.66687332 32.6582076,4.63456963 32.6259039,4.61841779 C32.7551187,4.48920304 32.9004853,4.55381041 33.0458519,4.55381041 C34.5964289,4.55381041 36.130854,4.53765857 37.681431,4.55381041 C37.988316,4.55381041 38.1013789,4.48920304 38.0852271,4.16616617 C38.0529234,3.79467376 38.0852271,3.42318136 38.0852271,3.05168896 C38.0852271,2.82556315 38.1175308,2.59943734 38.3598084,2.48637443 C39.1027932,2.4379189 39.845778,2.47022259 40.5887628,2.45407074 C40.8956479,2.45407074 40.9925589,2.5509818 40.9925589,2.87401868 C40.9925589,3.42318136 40.9279516,3.97234404 41.0410145,4.52150673 C42.7046544,4.53765857 44.3844461,4.53765857 46.048086,4.55381041 C46.2096044,4.55381041 46.3711229,4.48920304 46.5164895,4.60226595 C46.3872747,4.69917701 46.2257563,4.65072148 46.0803897,4.65072148 L41.4771142,4.65072148 C41.396355,4.65072148 41.3155958,4.61841779 41.2509884,4.66687332 C41.3640513,4.63456963 41.4932661,4.65072148 41.606329,4.65072148 L45.8542639,4.65072148 C46.5326413,4.65072148 46.5810968,4.71532885 46.4195784,5.40985813 C46.25806,5.55522472 46.048086,5.50676919 45.8704157,5.50676919 L41.4932661,5.50676919 C41.3155958,5.50676919 41.1379255,5.45831366 40.9925589,5.60368025 C40.9925589,6.16899478 40.9117997,6.73430931 41.0410145,7.29962383 L45.4666196,7.29962383 C45.6442899,7.29962383 45.9188712,7.23501646 45.6927454,7.57420517 C45.6281381,7.46114227 45.531227,7.42883858 45.4020122,7.42883858 L41.2832921,7.42883858 L45.2404938,7.42883858 C45.6765936,7.42883858 45.6927454,7.44499043 45.5635307,7.89724205 C45.4343159,8.1395197 45.2081901,8.34949367 45.2727975,8.64022685 L45.2727975,8.64022685 Z" id="Shape" fill="#393738"></path>
                        <path d="M77.2695366,16.6192376 L64.8003134,16.6192376 C63.9927212,16.6192376 64.1057841,16.7161487 64.0896322,15.9085565 C64.3480617,15.8277973 64.6226431,15.8762528 64.8810726,15.860101 L68.9513372,15.860101 L64.0896322,15.860101 C64.0250249,15.860101 63.9765693,15.8439491 63.9281138,15.8116454 C64.0411767,15.6662788 64.2026951,15.7470381 64.3319099,15.7470381 C65.8340314,15.7470381 67.3361528,15.7308862 68.8544261,15.7470381 C69.1451593,15.7470381 69.2259185,15.6662788 69.2259185,15.3755457 C69.2097667,14.1641574 69.2097667,12.9527691 69.2259185,11.7575327 C69.2259185,11.4829513 69.1451593,11.418344 68.870578,11.418344 C67.3523047,11.4344958 65.8340314,11.4344958 64.3157581,11.418344 C64.1865433,11.418344 64.0250249,11.515255 63.9281138,11.3375847 C63.9765693,11.0468516 63.9765693,10.7399665 63.9281138,10.4492333 C64.0411767,10.2877149 64.2026951,10.3684741 64.3319099,10.3684741 C65.8340314,10.3684741 67.3361528,10.3523223 68.8382743,10.3684741 C69.1613111,10.3684741 69.2420704,10.2715631 69.2259185,9.96467803 C69.1936148,9.41551535 69.1936148,8.86635267 69.1936148,8.31718998 C69.0805519,8.15567155 68.9190335,8.23643076 68.7898187,8.23643076 L64.4611246,8.23643076 C64.2834544,8.23643076 64.0896322,8.28488629 63.9765693,8.09106417 C63.9442656,7.34807936 63.9442656,7.34807936 64.6710986,7.34807936 L76.6396147,7.34807936 C76.8011332,7.34807936 77.0111071,7.2511683 77.1241701,7.46114227 C77.1403219,8.23643076 77.1403219,8.23643076 76.3650334,8.23643076 L72.2947688,8.23643076 C72.1655541,8.23643076 71.9878838,8.1395197 71.8909727,8.31718998 C71.8909727,8.88250451 71.9071246,9.44781904 71.8748209,10.0131336 C71.858669,10.3038667 71.9878838,10.3523223 72.2301614,10.3523223 C73.7322829,10.3361704 75.2505562,10.3523223 76.7526777,10.3361704 C77.0918664,10.3361704 77.2210811,10.384626 77.2049293,10.7722702 C77.1726256,11.4021921 77.2049293,11.4021921 76.5588555,11.4021921 L72.2140096,11.4021921 C71.9555801,11.4021921 71.858669,11.4506476 71.858669,11.7413808 C71.8748209,12.9689209 71.8748209,14.1964611 71.858669,15.4078493 C71.858669,15.6016715 71.858669,15.7470381 72.1332504,15.7308862 C72.9408426,15.7147344 73.7484347,15.7147344 74.5560269,15.7147344 C74.5883306,15.2140272 74.3460529,14.7779274 74.2168382,14.309524 C74.0068642,13.5665392 74.0068642,13.5665392 74.7821527,13.5665392 L76.0258447,13.5665392 C76.2842742,13.5665392 76.4780963,13.6634502 76.5588555,13.889576 C76.817285,14.7294719 77.0757145,15.5532159 77.2856885,16.3931118 C77.334144,16.473871 77.3179922,16.5546302 77.2695366,16.6192376 L77.2695366,16.6192376 Z M52.6541269,5.23218785 C52.7833417,5.11912494 52.9448601,5.18373232 53.0740749,5.18373232 C54.8023222,5.18373232 56.5305694,5.16758047 58.2588167,5.19988416 C58.6787646,5.19988416 58.7595238,5.07066941 58.7272202,4.69917701 C58.6949165,4.11771064 58.7110683,3.53624427 58.7272202,2.9547779 C58.7272202,2.85786683 58.6464609,2.71250024 58.8079794,2.64789287 C59.5832679,2.71250024 60.3585564,2.71250024 61.1338449,2.64789287 C61.327667,2.92247421 61.1984522,3.22935924 61.2146041,3.53624427 C61.2307559,3.97234404 61.2469078,4.39229198 61.2146041,4.82839176 C61.1984522,5.11912494 61.2953633,5.216036 61.5860965,5.19988416 C61.7799186,5.18373232 61.9898926,5.13527679 62.1837147,5.24833969 C62.0383481,5.34525075 61.8606778,5.24833969 61.7476149,5.29679522 L61.6830075,5.29679522 C62.4905997,5.23218785 62.0868036,5.79750237 62.1191073,6.13669109 C62.1191073,6.20129847 61.9737407,6.18514662 61.8768297,6.20129847 C61.6668557,6.23360215 61.4407299,6.13669109 61.2307559,6.249754 L61.2307559,15.650127 C61.2307559,15.8439491 61.2792114,16.0377712 61.1661485,16.2154415 C61.0692375,16.1185305 61.117693,15.9893157 61.117693,15.8762528 L61.117693,6.83122037 C61.117693,6.73430931 61.0853893,6.6212464 61.1338449,6.52433534 C61.1338449,6.50818349 61.1661485,6.50818349 61.1661485,6.50818349 L61.1015412,6.50818349 L61.1015412,15.6339751 C61.1015412,16.0377712 61.0692375,16.3931118 60.810808,16.7161487 C60.6492895,16.9099708 60.4231637,16.9099708 60.1970379,16.9099708 L57.4189208,16.9099708 C57.1766432,16.9099708 57.0797321,16.8615153 57.0797321,16.6030858 C57.0797321,15.8277973 57.0635803,15.8277973 57.8227169,15.8277973 L58.226513,15.8277973 C58.5818536,15.8277973 58.743372,15.6662788 58.743372,15.3109383 C58.7272202,14.8102311 58.743372,14.2933721 58.743372,13.792665 L58.743372,6.21745031 C58.5980054,6.12053925 58.4203351,6.16899478 58.2588167,6.16899478 L53.2517452,6.16899478 C52.6541269,6.16899478 52.4926085,5.86210975 52.7994935,5.28064338 C54.6892592,5.26449153 56.5951768,5.28064338 58.4849425,5.28064338 L52.9125564,5.28064338 C52.8156454,5.28064338 52.7348862,5.29679522 52.6541269,5.23218785 L52.6541269,5.23218785 Z M47.2594112,8.73713792 C48.0508515,6.76661299 48.8745955,4.82839176 49.7467951,2.89017052 C49.8921617,2.61558918 50.1182875,2.51867812 50.4413244,2.53482996 C50.9420315,2.56713365 51.4588905,2.5509818 51.9595977,2.53482996 C52.2180272,2.53482996 52.3633938,2.61558918 52.3472419,2.89017052 C51.8142311,4.10155879 51.2812202,5.32909891 50.7482094,6.54048718 C50.8774241,6.68585377 51.0389426,6.58894271 51.200461,6.60509456 C51.3458276,6.6212464 51.4911942,6.58894271 51.5396497,6.78276484 C51.5719534,10.0292854 51.5396497,13.2919578 51.5558016,16.5384784 C51.5558016,16.9099708 51.3942831,17.0391855 51.0389426,17.0391855 C50.6189946,17.0230337 50.1990467,17.0230337 49.7790988,17.0391855 C49.4399101,17.0553374 49.342999,16.9099708 49.3591508,16.5869339 C49.3753027,14.2610684 49.3591508,11.9513548 49.3591508,9.62548932 C49.3591508,11.9190511 49.3591508,14.2287648 49.342999,16.5223265 C49.342999,16.6676931 49.4560619,16.8615153 49.2299361,16.9422745 C49.2299361,14.4871943 49.2137843,12.0482659 49.2299361,9.59318563 C49.2299361,9.22169323 49.1491769,9.10863032 48.7776845,9.12478216 C48.2769773,9.15708585 47.7601183,9.12478216 47.2594112,9.12478216 C47.275563,9.07632663 47.275563,9.0278711 47.3240185,9.0278711 C47.9054849,8.99556741 48.4869513,9.0278711 49.133025,9.01171926 C48.6000142,9.01171926 48.1154589,8.99556741 47.6309036,9.01171926 C47.3886259,9.06017479 47.2432593,8.99556741 47.2594112,8.73713792 Z M71.9878838,3.71391455 L72.0040356,3.73006639 L71.9878838,3.74621823 C72.0040356,3.81082561 72.0524912,3.84312929 72.1170985,3.84312929 C73.61922,3.82697745 75.1374933,3.87543298 76.6396147,3.81082561 C77.0434108,3.89158483 77.2049293,4.16616617 77.2210811,4.53765857 C77.237233,5.03836572 77.2210811,5.55522472 77.237233,6.05593187 C77.237233,6.28205768 77.1564737,6.33051321 76.9464998,6.33051321 C76.2196668,6.31436137 75.4928338,6.31436137 74.749849,6.33051321 C74.4752677,6.33051321 74.442964,6.21745031 74.442964,5.9913245 C74.442964,5.58752841 74.5075714,5.18373232 74.3945085,4.79608807 C74.2975974,4.68302516 74.1683827,4.73148069 74.0553198,4.73148069 L67.0131159,4.73148069 C66.9162049,4.73148069 66.7708383,4.66687332 66.6900791,4.81223991 C66.6739272,5.28064338 66.6739272,5.74904684 66.6577754,6.20129847 C65.769424,6.28205768 64.8972244,6.249754 64.008873,6.21745031 C63.8635064,5.4744655 63.9765693,4.74763254 63.9604175,4.00464773 C63.9604175,3.74621823 64.2026951,3.82697745 64.3319099,3.82697745 L68.660604,3.82697745 C68.8059706,3.82697745 68.9513372,3.89158483 69.0805519,3.76237008 L69.0644001,3.77852192 C69.1936148,3.47163689 69.1128556,3.13244818 69.1290075,2.82556315 C69.1290075,2.53482996 69.2097667,2.38946337 69.5328035,2.38946337 C70.211181,2.40561521 70.9057103,2.40561521 71.5840877,2.38946337 C71.8425172,2.38946337 71.9071246,2.47022259 71.9071246,2.72865208 C71.9555801,3.0678408 71.8909727,3.39087767 71.9878838,3.71391455 L71.9878838,3.71391455 Z" id="Shape" fill="#393738"></path>
                        <path d="M55.0443474,12.5974285 C54.4951847,11.0468516 54.0106294,9.49627457 53.542226,7.91339389 C53.5583778,7.68726808 53.7360481,7.68726808 53.8975665,7.68726808 C54.4628811,7.67111624 55.0281956,7.71957177 55.5773583,7.65496439 C55.8357878,7.68726808 55.9650025,7.84878652 56.0296099,8.07491233 C56.4657097,9.48012272 56.9179613,10.8853331 57.3540611,12.2905435 C57.3379092,12.4843656 57.2894537,12.6135804 57.047176,12.5974285 C56.3849505,12.5974285 55.706573,12.6620359 55.0443474,12.5974285 L55.0443474,12.5974285 Z M72.5044904,20.9479317 C72.2137572,20.4149209 71.923024,19.88191 71.5999872,19.2842918 L72.6660088,19.2842918 C72.8759828,19.2842918 72.8921346,19.4458102 72.956742,19.575025 C73.1344123,19.9465174 73.3120826,20.3180098 73.4897529,20.7056541 C73.6674231,21.0609946 73.8289416,21.432487 74.0389155,21.8685868 C74.410408,21.0932983 74.7657485,20.3826172 75.1210891,19.6557842 C75.3795186,19.2519881 75.7833147,19.365051 76.1548071,19.3812029 C76.26787,19.3812029 76.26787,19.5104176 76.2840218,19.5911768 C76.26787,19.7042397 76.2194144,19.8173027 76.1225034,19.88191 C75.6540999,20.4633764 75.3795186,21.1417538 75.1049372,21.8201313 C74.9918743,22.1754718 74.7980522,22.5146605 74.5880782,22.8215456 C74.4588635,23.499923 74.5557745,24.1783004 74.5396227,24.840526 C74.5234709,25.2927776 74.0550674,25.5512071 73.6512713,25.3412332 C73.5220566,25.260474 73.5543602,25.1312592 73.5543602,25.0181963 L73.5543602,22.9669122 C73.2959307,22.256231 72.956742,21.5778536 72.5044904,20.9479317 L72.5044904,20.9479317 Z M44.2064604,19.3165955 C44.3195233,19.4458102 44.2549159,19.6073287 44.2549159,19.7365434 L44.2549159,24.0813894 C44.2549159,24.2429078 44.2710677,24.4044262 44.2872196,24.5659447 C45.1271154,24.6628557 45.9508595,24.6467039 46.7907553,24.5820965 C46.9361219,24.840526 46.9361219,25.0989555 46.7907553,25.3735369 C45.8377966,25.3089295 44.8848378,25.357385 43.931879,25.3412332 C43.7380569,25.3412332 43.5442348,25.3735369 43.3504126,25.3089295 C43.1727424,25.1958666 43.205046,25.0343481 43.205046,24.8728297 L43.205046,19.7688471 C43.205046,19.3488992 43.4311719,19.3488992 43.7380569,19.3327473 C44.0933974,19.3165955 44.1580048,19.4458102 44.1580048,19.7688471 C44.141853,21.222513 44.1580048,22.6923308 44.1580048,24.1459967 L44.1580048,19.7526953 C44.1580048,19.6234805 44.1257011,19.4619621 44.2064604,19.3165955 L44.2064604,19.3165955 Z M49.2458356,16.9745782 C49.3750503,16.8292116 49.3104429,16.6676931 49.3104429,16.5061747 L49.3104429,9.75470407 C49.3104429,9.59318563 49.2619874,9.43166719 49.3912022,9.20554138 L49.3912022,9.94852619 C49.3912022,12.1290251 49.407354,14.309524 49.3750503,16.4900229 C49.3750503,16.9261226 49.5042651,17.0391855 49.9080612,17.0068819 C50.2472499,16.9745782 50.6025904,16.9745782 50.9417791,17.0068819 C51.3294234,17.0391855 51.4586381,16.893819 51.4586381,16.4900229 C51.4424863,14.5356498 51.4586381,12.5812767 51.4586381,10.6269036 L51.4586381,6.78276484 C51.5232455,6.75046115 51.5717011,6.78276484 51.5878529,6.84737221 C51.6040047,10.174652 51.5878529,13.5019318 51.5878529,16.8292116 C51.5878529,16.9099708 51.6040047,17.0068819 51.5393974,17.0876411 C50.7641089,17.1522485 50.0049722,17.1522485 49.2296837,17.0876411 C49.2296837,17.0714892 49.2135319,17.0553374 49.2135319,17.0230337 C49.2296837,16.99073 49.2296837,16.99073 49.2458356,16.9745782 L49.2458356,16.9745782 Z M77.091614,7.47729411 C76.9462474,7.31577568 76.7524253,7.39653489 76.574755,7.39653489 L64.7193018,7.39653489 C63.9117096,7.39653489 64.0247725,7.29962383 64.0086206,8.10721601 C64.0570762,8.17182339 64.0570762,8.23643076 64.0086206,8.30103814 C63.8147985,8.01030495 63.9117096,7.68726808 63.9278614,7.39653489 C63.9440133,7.20271277 64.1701391,7.29962383 64.3155057,7.29962383 L76.8493363,7.29962383 C76.9623992,7.29962383 77.2208287,7.15425724 77.1885251,7.47729411 C77.1562214,7.5095978 77.1239177,7.5095978 77.091614,7.47729411 Z M51.0225384,19.3165955 C51.3455752,19.26814 51.684764,19.26814 52.0078008,19.3165955 C52.0562564,19.3812029 52.0562564,19.4619621 52.0562564,19.5265695 C52.0562564,21.4486389 52.0724082,23.3545564 52.0401045,25.2766258 C52.0078008,25.3412332 51.9593453,25.3412332 51.8947379,25.3089295 C51.7332195,25.0989555 51.7655232,24.8566779 51.7655232,24.6144002 L51.7655232,20.4149209 C51.7655232,20.301858 51.781675,20.1726432 51.7655232,20.0595803 C51.7493713,19.8657582 51.8301305,19.575025 51.5232455,19.575025 C51.167905,19.575025 51.264816,19.88191 51.264816,20.0757321 C51.2486642,21.5778536 51.264816,23.0799751 51.264816,24.5982484 C51.264816,24.840526 51.2971197,25.0828037 51.1517531,25.2927776 C51.1032976,25.3412332 51.0548421,25.3412332 51.0063865,25.2927776 C50.9740828,23.3384046 50.9902347,21.3840315 50.9902347,19.4296584 C50.9740828,19.3973547 51.0063865,19.3488992 51.0225384,19.3165955 L51.0225384,19.3165955 Z M77.2692843,16.6192376 C77.1400695,15.6985825 76.784729,14.826383 76.5262995,13.9218797 C76.4778439,13.7280576 76.3163255,13.6472984 76.1063515,13.6634502 L74.410408,13.6634502 C74.1842821,13.6634502 74.1358266,13.7442094 74.200434,13.9541834 C74.3458006,14.4225869 74.4750153,14.8909903 74.6203819,15.3593938 C74.6526856,15.4886086 74.7011411,15.6178233 74.5719264,15.7308862 C74.3619524,15.0040532 74.1358266,14.2772203 73.9097008,13.5019318 L76.1548071,13.5019318 C76.3970847,13.5019318 76.5586032,13.6472984 76.6232105,13.8411205 C76.8977919,14.6971682 77.2046769,15.5370641 77.3500435,16.4254155 C77.3661953,16.5061747 77.3500435,16.5707821 77.2692843,16.6192376 L77.2692843,16.6192376 Z" id="Shape" fill="#393738"></path>
                        <path d="M44.2065234,19.3165955 L44.2065234,24.4851855 L44.1257642,24.4851855 L44.1257642,22.4823568 C44.1257642,21.5617018 44.1096124,20.6248948 44.1257642,19.7042397 C44.1257642,19.3973547 43.9803976,19.365051 43.73812,19.3812029 C43.528146,19.3973547 43.318172,19.3327473 43.318172,19.6719361 L43.318172,25.0020445 C43.318172,25.0989555 43.3666276,25.1958666 43.3989313,25.2927776 C43.318172,25.3412332 43.2374128,25.357385 43.1889573,25.2443221 C43.1728055,23.3384046 43.1889573,21.4486389 43.1889573,19.5427213 C43.1889573,19.4619621 43.1728055,19.365051 43.2374128,19.2842918 C43.5442979,19.2842918 43.8834866,19.2358363 44.2065234,19.3165955 L44.2065234,19.3165955 Z M60.8106187,16.7161487 C61.295174,15.5693678 61.0205927,14.3741313 61.0367445,13.1950468 C61.0852,11.0468516 61.0528964,8.89865635 61.0528964,6.75046115 L61.0528964,6.31436137 L61.1498074,6.31436137 L61.1498074,16.1992897 C61.1336556,16.4415673 61.0044408,16.6030858 60.8106187,16.7161487 L60.8106187,16.7161487 Z M51.5745555,17.0714892 L51.5745555,7.33192752 C51.5745555,7.1381054 51.5504905,6.94428327 51.5504905,6.75046115 C51.5023604,6.70200562 51.5023604,6.65355009 51.5745555,6.60509456 C51.7911409,6.68585377 51.6708157,6.81506852 51.6708157,6.92813143 L51.6708157,16.7484524 C51.6708157,16.8453634 51.7670759,16.9745782 51.5745555,17.0714892 Z M37.2773825,14.0833982 C37.4550528,14.309524 37.1804715,14.2933721 37.1158641,14.3256758 C35.9690832,14.9071422 34.8223023,15.5209122 33.5786103,15.8762528 C33.2717253,15.9731639 32.9809921,16.166986 32.6418034,16.1508341 C32.6094997,16.1346823 32.6094997,16.1023786 32.6094997,16.0862268 C32.6094997,16.0539231 32.6256516,16.0539231 32.6256516,16.0539231 C33.6755214,15.6339751 34.7576949,15.3270901 35.7752611,14.8102311 C36.2759682,14.5679535 36.7766754,14.3418277 37.2773825,14.0833982 L37.2773825,14.0833982 Z M66.7060416,4.87956295 C66.770649,4.65728466 66.9321674,4.70174031 67.0613822,4.70174031 L74.0389786,4.70174031 C74.1681934,4.70174031 74.31356,4.63505683 74.3943192,4.85733512 C71.8423279,4.85733512 69.2741848,4.85733512 66.7060416,4.87956295 L66.7060416,4.87956295 Z" id="Shape" fill="#393738"></path>
                        <path d="M69.1128556,3.77852192 C68.9997927,3.9561922 68.8221224,3.87543298 68.660604,3.87543298 C67.2392417,3.87543298 65.8340314,3.89158483 64.4126691,3.87543298 C64.1057841,3.87543298 63.9765693,3.94004036 63.9927212,4.27922907 C64.0573286,4.92530282 63.8796583,5.57137656 64.0896322,6.21745031 C64.1219359,6.23360215 64.1219359,6.26590584 64.1219359,6.28205768 C64.1057841,6.29820953 64.1057841,6.31436137 64.0896322,6.31436137 C63.9442656,6.3628169 63.911962,6.28205768 63.911962,6.15284293 C63.911962,5.44216181 63.9281138,4.71532885 63.911962,4.00464773 C63.911962,3.71391455 64.0896322,3.79467376 64.2349988,3.79467376 L68.6121485,3.79467376 C68.7898187,3.79467376 68.9513372,3.79467376 69.1128556,3.77852192 Z M52.8156454,5.32909891 C52.5895196,5.97517265 52.6864306,6.13669109 53.3486562,6.13669109 L58.2749685,6.13669109 C58.436487,6.13669109 58.6141572,6.07208372 58.7272202,6.23360215 C56.8536063,6.23360215 54.9961443,6.21745031 53.1225304,6.23360215 C52.7187343,6.23360215 52.5572159,6.13669109 52.6218233,5.732895 C52.6541269,5.57137656 52.6379751,5.40985813 52.6541269,5.24833969 C52.7025825,5.24833969 52.751038,5.26449153 52.7994935,5.26449153 C52.8317972,5.28064338 52.8479491,5.29679522 52.8317972,5.31294707 L52.8156454,5.32909891 L52.8156454,5.32909891 Z M46.3549079,5.40985813 C46.3549079,5.32909891 46.3387561,5.26449153 46.3549079,5.18373232 C46.4195153,4.79608807 46.2741487,4.66687332 45.8703526,4.68302516 C44.4166867,4.71532885 42.9468689,4.69917701 41.493203,4.68302516 C41.3478364,4.68302516 41.2024698,4.73148069 40.9924958,4.5861141 L46.4679708,4.5861141 C46.5325782,4.90915097 46.5810337,5.24833969 46.4356671,5.55522472 C46.4033635,5.52292103 46.3549079,5.49061735 46.3549079,5.44216181 L46.3549079,5.40985813 L46.3549079,5.40985813 Z M45.2727344,8.64022685 C45.0627604,8.36564551 45.3211899,8.17182339 45.4019492,7.94569758 C45.5796194,7.49344596 45.5634676,7.47729411 45.0950641,7.47729411 L41.0732551,7.47729411 L41.0732551,7.38038305 L45.208127,7.38038305 C45.3696455,7.38038305 45.5957713,7.29962383 45.6442268,7.57420517 C45.6119231,7.96184942 45.418101,8.30103814 45.2727344,8.64022685 L45.2727344,8.64022685 Z M46.0964784,17.1522485 C46.3710598,17.0553374 46.5810337,16.9099708 46.5487301,16.5546302 C46.5325782,16.3446563 46.4679708,16.2477452 46.241845,16.1508341 C45.6765305,15.9247083 45.0950641,15.7631899 44.5782051,15.4563049 C44.5620533,15.4563049 44.5620533,15.440153 44.5620533,15.4240012 C44.594357,15.4078493 44.6266607,15.3916975 44.6589643,15.3593938 C45.2242789,15.6178233 45.7895934,15.8924046 46.4033635,16.0377712 C46.6456411,16.1023786 46.7102485,16.2154415 46.6940966,16.4415673 C46.6779448,16.5546302 46.6940966,16.683845 46.6940966,16.7969079 C46.7102485,17.5237409 46.661793,17.3622224 46.0964784,17.1522485 L46.0964784,17.1522485 Z M73.6030681,22.8053937 C73.6030681,23.5160748 73.61922,24.226756 73.6030681,24.9535889 C73.6030681,25.260474 73.716131,25.3412332 73.9907124,25.3250813 C74.2491419,25.3089295 74.5075714,25.3412332 74.5075714,24.9535889 C74.4914195,24.2590596 74.5075714,23.5483785 74.5075714,22.8538493 C74.5075714,22.8376974 74.5237232,22.8215456 74.5237232,22.8215456 C74.5560269,22.8215456 74.5721788,22.8215456 74.6044824,22.8376974 C74.6044824,23.5806822 74.5883306,24.323667 74.6044824,25.0666518 C74.6044824,25.3250813 74.5721788,25.4219924 74.2652937,25.4219924 C73.5061571,25.4058405 73.5061571,25.4219924 73.5061571,24.6467039 C73.5061571,24.0652375 73.5061571,23.4837712 73.5223089,22.9023048 C73.4738534,22.8053937 73.5223089,22.7892419 73.6030681,22.8053937 L73.6030681,22.8053937 Z M32.5773853,4.60226595 L37.9397974,4.60226595 C37.8105826,4.74763254 37.6813679,4.68302516 37.568305,4.68302516 L33.3526738,4.68302516 C32.7227519,4.68302516 32.7227519,4.68302516 32.7227519,5.31294707 L32.7227519,5.49061735 C32.6742964,5.52292103 32.6419927,5.52292103 32.5935372,5.4744655 C32.5450816,5.216036 32.6258408,4.94145466 32.5450816,4.68302516 C32.5773853,4.66687332 32.5773853,4.63456963 32.5773853,4.60226595 L32.5773853,4.60226595 Z M52.3472419,2.90632236 C52.2503309,2.6963484 52.1049643,2.61558918 51.8626866,2.63174102 C51.4911942,2.66404471 51.1197018,2.63174102 50.7482094,2.63174102 C50.3928688,2.63174102 50.0213764,2.5509818 49.7467951,2.89017052 C49.7629469,2.56713365 49.9406172,2.48637443 50.2475022,2.48637443 C50.9904871,2.50252627 51.7334719,2.48637443 52.4764567,2.48637443 C52.5249122,2.66404471 52.4280011,2.77710762 52.3472419,2.90632236 L52.3472419,2.90632236 Z M52.0064812,25.3089295 C52.0064812,23.3061009 52.0331048,21.3194241 52.0331048,19.3165955 C52.2194699,19.365051 52.1395992,19.4619621 52.1395992,19.5427213 L52.1395992,25.147411 C52.1395992,25.2281703 52.2194699,25.3250813 52.0331048,25.3735369 C51.9798576,25.357385 51.953234,25.357385 51.9798576,25.3412332 C51.9798576,25.3250813 51.9798576,25.3089295 52.0064812,25.3089295 Z M51.0597357,19.3165955 C51.0597357,21.3194241 51.0597357,23.3222527 51.082543,25.3089295 C51.1281578,25.3250813 51.1281578,25.3412332 51.1053504,25.357385 C51.082543,25.3735369 51.082543,25.3735369 51.0597357,25.3735369 C50.8772768,25.3412332 50.9456989,25.2281703 50.9456989,25.147411 L50.9456989,19.5265695 C50.9456989,19.4619621 50.8772768,19.3488992 51.0597357,19.3165955 L51.0597357,19.3165955 Z M43.2623194,19.3004437 L43.2623194,25.3089295 C43.3077012,25.3250813 43.3077012,25.3412332 43.3077012,25.357385 C43.2850103,25.3735369 43.2850103,25.3735369 43.2623194,25.3735369 C43.0354103,25.3250813 43.1488649,25.1958666 43.1488649,25.1151074 L43.1488649,19.5588732 C43.1488649,19.4781139 43.0581012,19.3488992 43.2623194,19.3004437 L43.2623194,19.3004437 Z M77.0917402,7.47729411 L77.1886512,7.47729411 C77.2694105,8.31718998 77.2694105,8.31718998 76.4456664,8.31718998 L71.9069984,8.31718998 C72.0200613,8.09106417 72.2138834,8.18797523 72.3754018,8.18797523 L76.3810591,8.18797523 C77.1886512,8.18797523 77.0917402,8.28488629 77.0917402,7.47729411 Z" id="Shape" fill="#393738"></path>
                        <path d="M40.8953955,5.58752841 C41.0084584,5.3614026 41.2184324,5.40985813 41.3961027,5.40985813 L46.3547186,5.40985813 C46.2901113,5.65213578 46.0801373,5.53907288 45.9509226,5.53907288 C44.4811048,5.55522472 43.011287,5.53907288 41.5414692,5.55522472 C41.3799508,5.55522472 41.2184324,5.52292103 41.0569139,5.58752841 L41.0246103,5.60368025 L40.9923066,5.60368025 C40.9600029,5.65213578 40.9276992,5.63598394 40.8953955,5.58752841 L40.8953955,5.58752841 Z M71.9876945,3.71391455 C71.7938724,3.4393332 71.9069353,3.13244818 71.9069353,2.84171499 C71.9069353,2.56713365 71.8423279,2.4379189 71.5354429,2.4379189 C70.8893691,2.45407074 70.2594472,2.45407074 69.6133735,2.4379189 C69.3226403,2.4379189 69.2257292,2.5509818 69.2095774,2.84171499 C69.1934255,3.16475186 69.3387921,3.48778873 69.1126663,3.79467376 C69.1126663,3.40702952 69.1288182,3.01938527 69.1288182,2.63174102 C69.1288182,2.42176706 69.1772737,2.35715968 69.4033995,2.35715968 C70.1948399,2.37331152 70.9862802,2.37331152 71.7615687,2.35715968 C71.9876945,2.35715968 72.03615,2.4379189 72.03615,2.63174102 C71.9876945,3.00323343 72.0038463,3.35857399 71.9876945,3.71391455 L71.9876945,3.71391455 Z M32.6418665,5.51641525 L37.5681788,5.51641525 C37.7296972,5.51641525 37.9073675,5.43568999 38.0204304,5.63750314 C36.3406387,5.63750314 34.6446951,5.63750314 32.9649034,5.61732182 C32.8356886,5.61732182 32.6580183,5.75859102 32.5772591,5.49623393 C32.593411,5.4558713 32.6257147,5.4558713 32.6418665,5.51641525 Z" id="Shape" fill="#393738"></path>
                        <path d="M41.0730027,5.61320997 C41.2022174,5.46344997 41.3798877,5.51960997 41.5414062,5.51960997 L45.9024039,5.51960997 C46.0639224,5.51960997 46.2254408,5.59448997 46.3708074,5.42600997 C46.4354148,5.46344997 46.4515666,5.53832997 46.4515666,5.61320997 L41.0730027,5.61320997 L41.0730027,5.61320997 Z M64.0247725,8.30103814 L64.0247725,8.10721601 C64.2024428,8.22027892 64.3962649,8.20412708 64.590087,8.20412708 L68.7734145,8.20412708 C68.9187811,8.20412708 69.1126032,8.12336786 69.2095143,8.31718998 C67.481267,8.31718998 65.7530198,8.30103814 64.0247725,8.30103814 L64.0247725,8.30103814 Z M40.9922435,4.52150673 C40.7984213,4.19846985 40.9114843,3.85928114 40.9114843,3.52009242 C40.8953324,2.5509818 40.9114843,2.56713365 39.9100699,2.5509818 C39.3770591,2.53482996 38.8440483,2.63174102 38.3110374,2.50252627 C38.359493,2.48637443 38.4079485,2.47022259 38.456404,2.47022259 C39.2962999,2.42176706 40.1361958,2.40561521 40.9599398,2.48637443 C40.9599398,3.14860002 40.9760916,3.82697745 40.9922435,4.52150673 L40.9922435,4.52150673 Z M76.6392362,3.84607997 C76.5261733,3.99257227 76.3808067,3.92978986 76.2515919,3.92978986 L72.4074532,3.92978986 C72.2620866,3.92978986 72.0682644,4.03442722 71.9713534,3.76237008 C72.8435529,3.88793491 73.7319043,3.78329755 74.6041039,3.80422502 C75.2986332,3.82515249 75.9770106,3.82515249 76.6392362,3.84607997 L76.6392362,3.84607997 Z M73.6026896,22.8053937 L73.5057785,22.9023048 C73.1181343,22.2723829 72.7950974,21.6263091 72.5043642,20.9479317 C72.5689716,20.8510206 72.633579,20.8833243 72.6658827,20.9479317 C72.940464,21.5940055 73.3927156,22.1431681 73.6026896,22.8053937 L73.6026896,22.8053937 Z M36.8733341,9.86776697 L36.776423,9.9162225 C36.1465011,9.15708585 35.3227571,9.67394485 34.5959241,9.5447301 C34.4505575,9.51242641 34.4828612,9.73855222 34.3859501,9.8031596 C34.3374946,9.73855222 34.2728872,9.657793 34.2244317,9.59318563 C34.2082799,9.56088194 34.192128,9.51242641 34.1598243,9.41551535 C34.9512647,9.41551535 35.7104013,9.39936351 36.469538,9.41551535 C36.6956638,9.41551535 36.7602712,9.69009669 36.8733341,9.86776697 Z M43.2210086,25.4638258 L43.2210086,25.3301115 L43.3986789,25.3301115 C44.4970043,25.3033687 45.5953296,25.4103401 46.693655,25.2766258 C46.7744142,25.2766258 46.7905661,25.3568544 46.8067179,25.4638258 L43.2210086,25.4638258 L43.2210086,25.4638258 Z M75.104811,21.8201313 C75.0240518,21.4970944 75.2824813,21.2871204 75.3793924,21.0286909 C75.5409108,20.6571985 75.7347329,20.2857061 75.9285551,19.9303656 C75.9608588,19.8496063 76.0093143,19.7526953 76.1223772,19.88191 C75.7831885,20.5118319 75.4439998,21.1579057 75.104811,21.8201313 L75.104811,21.8201313 Z M64.1054055,6.31436137 L64.1054055,6.21745031 C64.7353274,6.21745031 65.3814012,6.23360215 66.0113231,6.21745031 C66.1889934,6.21745031 66.431271,6.34666506 66.5443339,6.05593187 C66.5604858,6.00747634 66.5927894,6.20129847 66.6897005,6.21745031 C66.6897005,6.34666506 66.5927894,6.34666506 66.4958784,6.34666506 C65.704438,6.33051321 64.8968459,6.33051321 64.1054055,6.31436137 L64.1054055,6.31436137 Z M55.0442212,12.5974285 C55.6741431,12.5974285 56.304065,12.5812767 56.933987,12.5812767 C57.1601128,12.5812767 57.2893275,12.5166693 57.3700867,12.3066954 C57.5154533,12.5651249 57.4993015,12.6943396 57.1439609,12.6781878 C56.5463427,12.6458841 55.9648763,12.6781878 55.3672581,12.6620359 C55.2541952,12.6781878 55.1249805,12.7427951 55.0442212,12.5974285 L55.0442212,12.5974285 Z M47.2590326,8.73713792 C47.3559437,8.94711188 47.5013103,9.0278711 47.7435879,9.01171926 C48.1958395,8.97941557 48.664243,9.01171926 49.1164946,9.0278711 C48.5027246,9.17323769 47.8566508,8.97941557 47.2428808,9.15708585 C46.8875402,9.01171926 47.2428808,8.88250451 47.2590326,8.73713792 L47.2590326,8.73713792 Z M61.2303774,6.23360215 C61.375744,6.07208372 61.5695661,6.13669109 61.7310845,6.13669109 C62.0541214,6.16899478 62.1348806,6.02362819 62.1348806,5.71674316 C62.1348806,5.40985813 62.0379695,5.28064338 61.7310845,5.31294707 C61.6341734,5.32909891 61.5211105,5.31294707 61.4241995,5.23218785 L62.199488,5.23218785 C62.2802472,6.20129847 62.2802472,6.20129847 61.2303774,6.23360215 L61.2303774,6.23360215 Z M46.806781,24.6105621 C46.7906291,24.6674934 46.7906291,24.7528902 46.7744773,24.7528902 C45.9668851,24.7244246 45.1592929,24.838287 44.3517008,24.695959 C44.3355489,24.695959 44.3193971,24.6390277 44.2870934,24.5820965 C45.1269893,24.5820965 45.9668851,24.6105621 46.806781,24.6105621 L46.806781,24.6105621 Z M61.1496181,2.64789287 C61.1496181,2.67909287 61.1496181,2.74149287 61.1334663,2.74149287 C60.3581778,2.86629287 59.5990412,2.86629287 58.8237527,2.74149287 C58.8237527,2.74149287 58.8237527,2.67909287 58.8076008,2.64789287 L61.1496181,2.64789287 L61.1496181,2.64789287 Z" id="Shape" fill="#393738"></path>
                        <path d="M40.960066,2.57262541 C40.1201701,2.57262541 39.2964261,2.57262541 38.4565302,2.52857835 C39.2802742,2.35239011 40.1201701,2.30834305 40.960066,2.57262541 Z M55.5774845,7.67111624 C55.0767773,7.81648283 54.5599183,7.70341992 54.0430593,7.73572361 C53.8492372,7.75187545 53.6554151,7.71957177 53.5262003,7.91339389 C53.4777448,7.78417914 53.3323782,7.63881255 53.6392632,7.63881255 C54.285337,7.67111624 54.9314107,7.67111624 55.5774845,7.67111624 Z M49.2621136,17.0714892 L51.5718272,17.0714892 C50.7965387,17.2979324 50.0212502,17.343221 49.2621136,17.0714892 Z M35.7107168,24.2095428 C35.6622613,24.0490857 35.7268686,24.0490857 35.791476,24.0490857 L37.7135454,24.0490857 C37.8104565,24.0490857 37.8912157,24.0758285 37.9396712,24.2362857 C37.1805346,24.2362857 36.4375498,24.2362857 35.7107168,24.2095428 Z M65.2847425,24.2095428 C65.236287,24.0490857 65.3008943,24.0490857 65.3655017,24.0490857 L67.2875711,24.0490857 C67.3844822,24.0490857 67.4652414,24.0758285 67.5136969,24.2362857 C66.7545603,24.2362857 66.0115754,24.2362857 65.2847425,24.2095428 Z M40.8954586,15.2624827 C41.3477102,15.1494198 41.6384434,15.4724567 41.9776321,15.6662788 L41.9614803,15.6985825 C41.9291766,15.7147344 41.8968729,15.7147344 41.8807211,15.7147344 C41.5092287,15.650127 41.2023436,15.440153 40.8954586,15.2624827 L40.8954586,15.2624827 Z M76.2840849,19.575025 C75.864137,19.1873807 75.4926446,19.4296584 75.1211522,19.6396324 C75.1534559,19.3488992 75.3149743,19.2358363 75.5895556,19.26814 C75.7833778,19.2842918 75.9771999,19.2842918 76.1548702,19.26814 C76.4940589,19.26814 76.4294515,19.3973547 76.2840849,19.575025 Z M32.6419296,16.0539231 L32.6419296,16.166986 C32.496563,16.4092636 32.5773222,16.6676931 32.5450185,16.9261226 C32.5288667,17.200704 32.803448,17.1037929 32.9003591,17.2168558 C32.7549925,17.2491595 32.6257777,17.3299187 32.4481075,17.297615 L32.4481075,16.2800489 C32.4642593,16.166986 32.4642593,16.0539231 32.6419296,16.0539231 L32.6419296,16.0539231 Z M37.2129013,19.3327473 C37.1967495,19.365051 37.1644458,19.4296584 37.148294,19.4296584 C36.7768016,19.3488992 36.4537647,19.365051 36.2760944,19.7688471 C36.2760944,19.7688471 36.2437907,19.7688471 36.2437907,19.7526953 L36.211487,19.7203916 C36.3407018,19.2196844 36.421461,19.1873807 37.2129013,19.3327473 L37.2129013,19.3327473 Z M40.9045213,5.58752841 L41.0567257,5.58752841 C41.0567257,6.15284293 41.0567257,6.71815746 41.0349822,7.28347199 C40.7305734,6.92813143 40.9480083,6.54048718 40.9045213,6.16899478 C40.8827778,5.97517265 40.9045213,5.78135053 40.9045213,5.58752841 L40.9045213,5.58752841 Z M67.9498598,25.3735369 C68.0952264,25.1797147 68.2890485,25.3250813 68.4505669,25.3250813 C68.6928446,25.3250813 68.8382112,25.260474 68.9189704,25.0505 C69.064337,25.3089295 69.064337,25.4542961 68.6928446,25.4058405 C68.4667188,25.3735369 68.2082893,25.3735369 67.9498598,25.3735369 L67.9498598,25.3735369 Z M38.3758341,25.3735369 C38.5212007,25.1797147 38.7150228,25.3250813 38.8765412,25.3250813 C39.1188189,25.3250813 39.2641855,25.260474 39.3449447,25.0505 C39.4903113,25.3089295 39.4903113,25.4542961 39.1188189,25.4058405 C38.8926931,25.3735369 38.6342636,25.3735369 38.3758341,25.3735369 L38.3758341,25.3735369 Z M34.1925066,25.1312592 C34.3378732,25.3735369 34.5801508,25.2766258 34.7739729,25.3089295 C34.9354914,25.3250813 35.080858,25.2281703 35.2423764,25.3089295 C34.9193395,25.4865998 34.563999,25.3896887 34.2248103,25.3896887 C33.9986845,25.3896887 34.1925066,25.2281703 34.1925066,25.1312592 L34.1925066,25.1312592 Z M63.7665323,25.1312592 C64.0734173,25.5027516 64.4772134,25.2120184 64.8164021,25.3089295 C64.4933652,25.5027516 64.1380247,25.3896887 63.798836,25.3896887 C63.5727102,25.3896887 63.7665323,25.2281703 63.7665323,25.1312592 L63.7665323,25.1312592 Z M66.786927,19.3327473 C66.4961938,19.5104176 66.173157,19.3165955 65.8824238,19.4619621 C66.1408533,19.1066215 66.480042,19.3165955 66.786927,19.3327473 Z M63.9442026,10.4330815 C64.1938026,10.7238147 64.1938026,11.0306997 63.9442026,11.3214329 L63.9442026,10.4330815 Z M33.5519373,7.47729411 L33.5519373,8.18797523 C33.5854972,8.20412708 33.6022771,8.22027892 33.5854972,8.25258261 C33.5687173,8.26873445 33.5687173,8.28488629 33.5519373,8.28488629 L33.4512577,8.28488629 C33.4680377,7.96184942 33.2834584,7.62266071 33.5519373,7.31577568 L33.5519373,7.39653489 C33.5854972,7.41268674 33.6022771,7.42883858 33.5854972,7.46114227 C33.5687173,7.46114227 33.5519373,7.47729411 33.5519373,7.47729411 Z M51.0227276,25.3735369 C51.0227276,25.357385 51.0227276,25.3250813 51.0388795,25.3089295 L51.1196387,25.3089295 C51.3942201,25.1312592 51.6526495,25.1312592 51.9272309,25.3089295 L52.0079901,25.3089295 C52.0079901,25.3250813 52.024142,25.357385 52.024142,25.3735369 L51.0227276,25.3735369 L51.0227276,25.3735369 Z M42.1553655,12.7750988 C42.1715173,12.5005175 42.3007321,12.3551509 42.5753134,12.3874546 C42.413795,12.4843656 42.3653395,12.7104915 42.1553655,12.7750988 Z M51.5557385,6.60509456 C51.5557385,6.65355009 51.5395866,6.70200562 51.5395866,6.75046115 L51.4588274,6.75046115 C51.2650053,6.52433534 50.9258166,6.81506852 50.7481463,6.54048718 C51.0227276,6.57279087 51.2811571,6.58894271 51.5557385,6.60509456 Z M63.9533743,15.8116454 C63.978698,15.8116454 64.0293452,15.8277973 64.0546689,15.8277973 C64.1053161,15.8439491 64.1306398,15.860101 64.1053161,15.8762528 C64.0799925,15.8924046 64.0799925,15.9085565 64.0546689,15.9085565 C64.0040216,16.166986 64.181287,16.4577192 63.9280507,16.7161487 C63.9533743,16.4092636 63.9533743,16.1023786 63.9533743,15.8116454 L63.9533743,15.8116454 Z M36.6798905,12.5005175 C36.9221682,12.4359101 37.0190792,12.5166693 37.0190792,12.7750988 C36.9060163,12.6781878 36.7929534,12.5812767 36.6798905,12.5005175 Z M60.2615822,22.6277234 C60.2615822,22.3854458 60.3746451,22.2723829 60.6169228,22.2723829 C60.5361635,22.4339013 60.4231006,22.5469642 60.2615822,22.6277234 Z M32.7300648,5.50676919 L32.5611704,5.50676919 L32.5611704,4.69917701 C32.8989593,4.95760651 32.662507,5.23218785 32.7300648,5.50676919 Z M38.8280857,11.8867474 C38.5696562,11.8867474 38.5050488,11.8382919 38.488897,11.5960142 C38.6504154,11.6444698 38.698871,11.8059882 38.8280857,11.8867474 Z M60.9797527,21.5455499 C60.8136324,21.3032723 60.8136324,21.0771465 60.9797527,20.8348688 C61.0746786,21.0771465 61.0509471,21.3032723 60.9797527,21.5455499 Z" id="Shape" fill="#393738"></path>
                        <path d="M64.0086206,15.9988454 L64.0086206,15.8116454 L69.0964514,15.8116454 L69.0964514,15.9988454 L64.0086206,15.9988454 Z M33.5462436,8.39132708 L33.5462436,8.20412708 L42.4943649,8.20412708 L42.4943649,8.39132708 L33.5462436,8.39132708 Z M33.5462436,7.56758305 L33.5462436,7.38038305 L37.9233932,7.38038305 L37.9233932,7.56758305 L33.5462436,7.56758305 Z M38.3205671,5.70059131 L38.3205671,7.20271277 L38.1333671,7.20271277 L38.1333671,5.70059131 L38.3205671,5.70059131 Z M71.9164019,11.5314069 L71.9164019,15.6178233 L71.7292019,15.6178233 L71.7292019,11.515255 C71.8540019,11.5314069 71.8540019,11.5314069 71.9164019,11.5314069 L71.9164019,11.5314069 Z M69.5097772,11.5314069 L69.5097772,15.5855196 L69.3225772,15.5855196 L69.3225772,11.4991032 C69.4473772,11.5314069 69.4473772,11.5314069 69.5097772,11.5314069 L69.5097772,11.5314069 Z M74.4750153,16.0149973 L71.9876314,16.0149973 L71.9876314,15.8277973 L74.4588635,15.8277973 C74.4750153,15.8901973 74.4750153,15.9525973 74.4750153,16.0149973 Z M71.9487056,8.38179736 L71.9487056,10.2392594 L71.7615056,10.2392594 L71.7615056,8.38179736 L71.9487056,8.38179736 Z M69.3225772,10.2392594 L69.3225772,8.47870842 L69.5097772,8.47870842 L69.5097772,10.2392594 C69.4473772,10.2231075 69.3849772,10.2392594 69.3225772,10.2392594 Z M59.0272307,6.34666506 L59.0272307,15.4240012 L58.8400307,15.4240012 L58.8400307,6.33051321 C58.9024307,6.33051321 58.9648307,6.33051321 59.0272307,6.34666506 Z M52.815393,5.45169153 L52.815393,5.26449153 L58.6139049,5.26449153 L58.6139049,5.45169153 L52.815393,5.45169153 Z M68.2081,23.0476714 C67.7235447,21.8201313 67.3359004,20.5441356 66.7867378,19.3327473 C66.4960046,19.4296584 66.1568159,19.2358363 65.8822345,19.4619621 C65.1230979,21.335576 64.4608723,23.2414935 63.766343,25.1312592 C63.7824948,25.2927776 63.8632541,25.357385 64.0247725,25.357385 C64.283202,25.3412332 64.5577833,25.3896887 64.8162128,25.3089295 C64.9615794,24.9212852 65.1230979,24.533641 65.2684645,24.1459967 C66.0114493,24.0652375 66.7544341,24.0490857 67.4974189,24.1621486 C67.6589373,24.5659447 67.7073928,25.0020445 67.9496705,25.3735369 C68.1596445,25.3250813 68.3696184,25.3412332 68.5634406,25.357385 C68.8218701,25.3735369 68.9187811,25.2766258 68.9187811,25.0343481 C68.6926553,24.3721226 68.4665295,23.709897 68.2081,23.0476714 Z M65.5430458,23.4030119 C65.8176271,22.5792679 66.0760566,21.7716757 66.3829417,20.8510206 C66.6898267,21.7716757 66.9482562,22.5792679 67.2228375,23.4030119 C66.6736748,23.5322267 66.1083603,23.5160748 65.5430458,23.4030119 L65.5430458,23.4030119 Z" id="Shape" fill="#393738"></path>
                        <path d="M65.5430458,23.4030119 L67.2228375,23.4030119 C67.1097746,23.6750691 66.9159525,23.5704317 66.7544341,23.5704317 C66.350638,23.4867218 65.93069,23.7378515 65.5430458,23.4030119 Z M38.6340743,23.0476714 C38.149519,21.8201313 37.7618747,20.5441356 37.2127121,19.3327473 C36.8573715,19.3973547 36.4051199,19.2358363 36.2112978,19.7203916 C35.5329203,21.5293981 34.8706947,23.3384046 34.1923173,25.1312592 C34.2084691,25.2927776 34.2892284,25.357385 34.4507468,25.357385 C34.7091763,25.3412332 34.9837576,25.3896887 35.2421871,25.3089295 C35.3875537,24.9212852 35.5490722,24.533641 35.6944388,24.1459967 C36.4374236,24.0652375 37.1804084,24.0490857 37.9233932,24.1621486 C38.1010635,24.5659447 38.149519,25.0020445 38.3756448,25.3735369 C38.5856188,25.3250813 38.7955927,25.357385 38.9894149,25.357385 C39.2478444,25.3735369 39.3286036,25.2766258 39.3447554,25.0343481 C39.1186296,24.3721226 38.8925038,23.709897 38.6340743,23.0476714 L38.6340743,23.0476714 Z M35.9690201,23.4030119 C36.2436014,22.5792679 36.5181828,21.7716757 36.8250678,20.8510206 C37.1319528,21.7716757 37.3903823,22.5792679 37.6649637,23.4030119 C37.0996492,23.5160748 36.5343346,23.5160748 35.9690201,23.4030119 Z" id="Shape" fill="#393738"></path>
                        <path d="M35.9690832,23.4030119 L37.6488749,23.4030119 C37.0997122,23.6526119 36.5343977,23.6526119 35.9690832,23.4030119 Z M59.0823714,22.1921212 C59.130827,22.1757206 59.1954343,22.1757206 59.2438899,22.15932 C59.2600417,22.3725278 59.0823714,22.3397266 58.9854604,22.3397266 C58.5655124,22.3561272 58.1617163,22.3397266 57.7417684,22.323326 C58.1778682,22.1921212 58.6462717,22.3725278 59.0823714,22.1921212 Z" id="Shape" fill="#393738"></path>
                        <path d="M60.9561746,20.8348688 C60.810808,19.9626692 60.2777971,19.4619621 59.3571421,19.3165955 C58.7595238,19.4942658 58.1457538,19.365051 57.5481356,19.3812029 C56.675936,19.3973547 56.675936,19.3812029 56.675936,20.2534024 L56.675936,24.7759186 C56.675936,25.2443221 56.9989729,25.4542961 57.4350727,25.2927776 C57.6127429,25.2281703 57.5642874,25.0828037 57.5642874,24.9535889 L57.5642874,23.4837712 C57.5642874,23.3384046 57.5158319,23.1768861 57.6611985,23.0799751 C58.0811464,23.0799751 58.5172462,23.0799751 58.9371941,23.0638232 C59.4055976,23.0476714 59.8740011,22.983064 60.2454935,22.6438753 C60.3101008,22.4823568 60.4231637,22.3531421 60.600834,22.2885347 C60.810808,22.0947126 60.8915672,21.8362831 60.9400227,21.5617018 C60.907719,21.3032723 60.8915672,21.0609946 60.9561746,20.8348688 L60.9561746,20.8348688 Z M59.8740011,21.432487 C59.7447863,21.7555239 59.5509642,21.9978015 59.2440791,22.1754718 C59.1956236,22.2239274 59.1310162,22.2400792 59.0825607,22.2077755 C58.6141572,22.2077755 58.1457538,22.1916237 57.6611985,22.1916237 C57.4350727,21.6586128 57.6127429,21.0932983 57.5642874,20.5441356 C57.5481356,20.4149209 57.49968,20.2372506 57.6773503,20.1403395 L57.6773503,20.1564914 C58.1619056,19.9303656 58.6787646,20.091884 59.1633199,20.0757321 C59.1633199,20.0757321 59.1794718,20.091884 59.1794718,20.1080358 C59.1794718,20.1241877 59.1633199,20.1403395 59.1633199,20.1564914 C59.5348123,20.3180098 59.7447863,20.608743 59.8901529,20.9640835 C59.9547603,21.0932983 59.9709121,21.2709686 59.8740011,21.432487 L59.8740011,21.432487 Z" id="Shape" fill="#393738"></path>
                        <path d="M59.8738118,21.432487 C59.8738118,21.2709686 59.8738118,21.0932983 59.89832,20.9317799 C59.89832,20.915628 59.89832,20.8994762 59.9228282,20.8833243 L59.9963528,20.8348688 C60.0943856,21.0448428 60.0698774,21.2548167 59.9963528,21.4486389 L59.9473364,21.4486389 C59.89832,21.4486389 59.89832,21.432487 59.8738118,21.432487 L59.8738118,21.432487 Z M51.9109529,25.3089295 L51.1033607,25.3089295 L51.1033607,19.8657582 C51.1033607,19.5427213 51.1518162,19.3812029 51.5394605,19.3812029 C51.9271047,19.3812029 51.9271047,19.575025 51.9271047,19.8657582 C51.9109529,21.6747647 51.9109529,23.499923 51.9109529,25.3089295 L51.9109529,25.3089295 Z" id="Shape" fill="#393738"></path>
                    </g>
                </g>
            </g>
        </g>
    </g>
</svg>