<?xml version="1.0" standalone="no"?><!DOCTYPE svg PUBLIC "-//W3C//DTD SVG 1.1//EN" "http://www.w3.org/Graphics/SVG/1.1/DTD/svg11.dtd"><svg class="icon" width="26px" height="26.00px" viewBox="0 0 1024 1024" version="1.1" xmlns="http://www.w3.org/2000/svg"><path fill="#607ae3" d="M932.977778 910.222222H665.486222v-52.337778H880.64V166.115556H304.924444v172.942222h-52.337777V113.777778H932.977778v796.444444z"  /><path fill="#607ae3" d="M570.026667 599.608889h204.8v52.337778h-204.8zM535.893333 439.751111h238.933334v52.337778h-238.933334zM410.737778 279.893333h364.088889v52.337778h-364.088889zM321.763556 471.153778A92.387556 92.387556 0 1 1 227.555556 563.541333a93.411556 93.411556 0 0 1 94.208-92.387555m0-52.337778a144.725333 144.725333 0 1 0 146.659555 144.725333 145.635556 145.635556 0 0 0-146.659555-144.725333z"  /><path fill="#607ae3" d="M552.618667 910.222222H500.622222a178.517333 178.517333 0 0 0-357.262222 0H91.022222a230.855111 230.855111 0 0 1 461.596445 0z"  /></svg>