<?xml version="1.0" encoding="UTF-8"?>
<svg width="14px" height="14px" viewBox="0 0 14 14" version="1.1" xmlns="http://www.w3.org/2000/svg" xmlns:xlink="http://www.w3.org/1999/xlink">
    <!-- Generator: Sketch 63.1 (92452) - https://sketch.com -->
    <title>ico_checkbox_1</title>
    <desc>Created with Sketch.</desc>
    <g id="系统管理" stroke="none" stroke-width="1" fill="none" fill-rule="evenodd">
        <g id="系统管理_菜单管理" transform="translate(-1605.000000, -300.000000)" fill="#607AE3">
            <g id="ico_checkbox_1" transform="translate(1605.000000, 300.000000)">
                <path d="M12,0 C13.1045695,-2.02906125e-16 14,0.8954305 14,2 L14,12 C14,13.1045695 13.1045695,14 12,14 L2,14 C0.8954305,14 1.3527075e-16,13.1045695 0,12 L0,2 C-1.3527075e-16,0.8954305 0.8954305,2.02906125e-16 2,0 L12,0 Z M10.4979821,3.64660912 L6.255,7.889 L4.13402104,5.76792947 L2.71980747,7.18214303 L4.84112782,9.30346337 L6.25534138,10.7176769 L11.9121956,5.06082269 L10.4979821,3.64660912 Z"></path>
            </g>
        </g>
    </g>
</svg>