<?xml version="1.0" encoding="UTF-8"?>
<svg width="28px" height="28px" viewBox="0 0 28 28" version="1.1" xmlns="http://www.w3.org/2000/svg" xmlns:xlink="http://www.w3.org/1999/xlink">
    <!-- Generator: Sketch 63.1 (92452) - https://sketch.com -->
    <title>menu_ico_1</title>
    <desc>Created with Sketch.</desc>
    <g id="系统管理" stroke="none" stroke-width="1" fill="none" fill-rule="evenodd">
        <g id="系统管理_菜单管理" transform="translate(-40.000000, -96.000000)">
            <g id="menu_ico_1" transform="translate(40.000000, 96.000000)">
                <rect x="0" y="0" width="28" height="28"></rect>
                <path d="M17,8.61538466 C16.1713658,8.6151722 15.4997929,7.92603511 15.5,7.07615385 C15.5002071,6.22627258 16.1721158,5.53747989 17.00075,5.53769226 C17.8293842,5.53790472 18.5009571,6.22704181 18.50075,7.07692308 C18.5005429,7.92680434 17.8286342,8.61559703 17,8.61538466 Z M19.8935,6.30769231 C19.55825,4.98461538 18.3935,4 17,4 C15.6065,4 14.44175,4.98461538 14.1065,6.30769231 L5,6.30769231 L5,7.84615385 L14.1065,7.84615385 C14.44175,9.16923077 15.6065,10.1538462 17,10.1538462 C18.3935,10.1538462 19.55825,9.16923077 19.8935,7.84615385 L23,7.84615385 L23,6.30769231 L19.8935,6.30769231 Z M15.7008246,21.6917823 C15.4329245,21.2155929 15.4330674,20.6289881 15.7011996,20.1529361 C15.9693318,19.6768842 16.4647176,19.3837087 17.00075,19.3838461 C17.8293842,19.3840586 18.5009571,20.0731957 18.5007501,20.9230769 C18.5005429,21.7729582 17.8286342,22.4617509 16.9999999,22.4615386 C16.4639676,22.4614011 15.9687248,22.1679717 15.7008246,21.6917823 Z M14.1065,20.1538462 L5,20.1538462 L5,21.6923077 L14.1065,21.6923077 C14.44175,23.0153846 15.6065,24 17,24 C18.3935,24 19.55825,23.0153846 19.8935,21.6923077 L23,21.6923077 L23,20.1538462 L19.8935,20.1538462 C19.55825,18.8307692 18.3935,17.8461538 17,17.8461538 C15.6065,17.8461538 14.44175,18.8307692 14.1065,20.1538462 Z M9.70082459,14.7687054 C9.43292443,14.292516 9.43306738,13.7059112 9.70119959,13.2298592 C9.96933181,12.7538072 10.4647176,12.4606318 11.00075,12.4607691 C11.8293842,12.4609816 12.5009571,13.1501187 12.5007501,14 C12.5005429,14.8498813 11.8286342,15.538674 10.9999999,15.5384616 C10.4639676,15.5383241 9.96872476,15.2448948 9.70082459,14.7687054 Z M8.1065,13.2307692 L5,13.2307692 L5,14.7692308 L8.1065,14.7692308 C8.44175,16.0923077 9.6065,17.0769231 11,17.0769231 C12.3935,17.0769231 13.55825,16.0923077 13.8935,14.7692308 L23,14.7692308 L23,13.2307692 L13.8935,13.2307692 C13.55825,11.9076923 12.3935,10.9230769 11,10.9230769 C9.6065,10.9230769 8.44175,11.9076923 8.1065,13.2307692 Z" id="Shape" fill="#607AE3"></path>
            </g>
        </g>
    </g>
</svg>